<?xml version="1.0" standalone="no"?><!DOCTYPE svg PUBLIC "-//W3C//DTD SVG 1.1//EN" "http://www.w3.org/Graphics/SVG/1.1/DTD/svg11.dtd"><svg class="icon" width="200px" height="200.00px" viewBox="0 0 1024 1024" version="1.1" xmlns="http://www.w3.org/2000/svg"><path d="M656.740861 305.702681a260.367181 260.367181 0 0 1-196.731113 75.697806 259.535337 259.535337 0 0 1 272.012998-272.428919 259.951259 259.951259 0 0 1-75.281885 196.731113z" fill="#FFA84A" /><path d="M656.740861 305.702681a260.367181 260.367181 0 0 1-196.731113 75.697806 259.535337 259.535337 0 0 1 272.012998-272.428919 259.951259 259.951259 0 0 1-75.281885 196.731113z" fill="#75A800" /><path d="M656.740861 305.702681a260.367181 260.367181 0 0 1-196.731113 75.697806l272.012998-272.428919a259.951259 259.951259 0 0 1-75.281885 196.731113z" fill="#EBE0CC" /><path d="M596.432169 192.571893a260.367181 260.367181 0 0 1-85.264013 192.571893 259.535337 259.535337 0 0 1 0-385.143786 260.783103 260.783103 0 0 1 85.264013 192.571893z" fill="#FFA84A" /><path d="M596.432169 192.571893a260.367181 260.367181 0 0 1-85.264013 192.571893 259.535337 259.535337 0 0 1 0-385.143786 260.783103 260.783103 0 0 1 85.264013 192.571893z" fill="#75A800" /><path d="M596.432169 192.571893a260.367181 260.367181 0 0 1-85.264013 192.571893V0a260.783103 260.783103 0 0 1 85.264013 192.571893z" fill="#EBE0CC" /><path d="M619.723802 353.11779m-108.139724 0a108.139724 108.139724 0 1 0 216.279448 0 108.139724 108.139724 0 1 0-216.279448 0Z" fill="#FF7A00" /><path d="M619.723802 353.11779m-80.272949 0a80.272949 80.272949 0 1 0 160.545898 0 80.272949 80.272949 0 1 0-160.545898 0Z" fill="#FF6600" /><path d="M571.476848 309.445979m-26.203087 0a26.203087 26.203087 0 1 0 52.406174 0 26.203087 26.203087 0 1 0-52.406174 0Z" fill="#FFFF9C" /><path d="M403.028432 353.11779m-108.139724 0a108.139724 108.139724 0 1 0 216.279448 0 108.139724 108.139724 0 1 0-216.279448 0Z" fill="#FF7A00" /><path d="M403.028432 353.11779m-80.272949 0a80.272949 80.272949 0 1 0 160.545898 0 80.272949 80.272949 0 1 0-160.545898 0Z" fill="#FF6600" /><path d="M355.1974 309.445979m-26.203086 0a26.203087 26.203087 0 1 0 52.406173 0 26.203087 26.203087 0 1 0-52.406173 0Z" fill="#FFFF9C" /><path d="M186.748985 569.81316m-108.139724 0a108.139724 108.139724 0 1 0 216.279447 0 108.139724 108.139724 0 1 0-216.279447 0Z" fill="#FF7A00" /><path d="M186.748985 569.81316m-80.272949 0a80.272949 80.272949 0 1 0 160.545897 0 80.272949 80.272949 0 1 0-160.545897 0Z" fill="#FF6600" /><path d="M138.917953 526.141348m-26.203087 0a26.203087 26.203087 0 1 0 52.406174 0 26.203087 26.203087 0 1 0-52.406174 0Z" fill="#FFFF9C" /><path d="M727.863526 455.434606m-108.139724 0a108.139724 108.139724 0 1 0 216.279447 0 108.139724 108.139724 0 1 0-216.279447 0Z" fill="#FF7A00" /><path d="M727.863526 455.434606m-80.688871 0a80.688871 80.688871 0 1 0 161.377741 0 80.688871 80.688871 0 1 0-161.377741 0Z" fill="#FF6600" /><path d="M679.616572 411.762794m-26.203087 0a26.203087 26.203087 0 1 0 52.406174 0 26.203087 26.203087 0 1 0-52.406174 0Z" fill="#FFFF9C" /><path d="M511.168156 455.434606m-108.139724 0a108.139724 108.139724 0 1 0 216.279448 0 108.139724 108.139724 0 1 0-216.279448 0Z" fill="#FF7A00" /><path d="M511.168156 455.434606m-80.272949 0a80.272949 80.272949 0 1 0 160.545898 0 80.272949 80.272949 0 1 0-160.545898 0Z" fill="#FF6600" /><path d="M463.337124 411.762794m-26.203087 0a26.203087 26.203087 0 1 0 52.406174 0 26.203087 26.203087 0 1 0-52.406174 0Z" fill="#FFFF9C" /><path d="M294.888708 455.434606m-108.139723 0a108.139724 108.139724 0 1 0 216.279447 0 108.139724 108.139724 0 1 0-216.279447 0Z" fill="#FF7A00" /><path d="M294.888708 455.434606m-80.272948 0a80.272949 80.272949 0 1 0 160.545897 0 80.272949 80.272949 0 1 0-160.545897 0Z" fill="#FF6600" /><path d="M247.057677 411.762794m-26.203087 0a26.203087 26.203087 0 1 0 52.406174 0 26.203087 26.203087 0 1 0-52.406174 0Z" fill="#FFFF9C" /><path d="M727.863526 677.952884m-108.139724 0a108.139724 108.139724 0 1 0 216.279447 0 108.139724 108.139724 0 1 0-216.279447 0Z" fill="#FF7A00" /><path d="M727.863526 677.952884m-80.688871 0a80.688871 80.688871 0 1 0 161.377741 0 80.688871 80.688871 0 1 0-161.377741 0Z" fill="#FF6600" /><path d="M679.616572 634.281072m-26.203087 0a26.203087 26.203087 0 1 0 52.406174 0 26.203087 26.203087 0 1 0-52.406174 0Z" fill="#FFFF9C" /><path d="M511.168156 677.952884m-108.139724 0a108.139724 108.139724 0 1 0 216.279448 0 108.139724 108.139724 0 1 0-216.279448 0Z" fill="#FF7A00" /><path d="M511.168156 677.952884m-80.272949 0a80.272949 80.272949 0 1 0 160.545898 0 80.272949 80.272949 0 1 0-160.545898 0Z" fill="#FF6600" /><path d="M463.337124 634.281072m-26.203087 0a26.203087 26.203087 0 1 0 52.406174 0 26.203087 26.203087 0 1 0-52.406174 0Z" fill="#FFFF9C" /><path d="M294.888708 677.952884m-108.139723 0a108.139724 108.139724 0 1 0 216.279447 0 108.139724 108.139724 0 1 0-216.279447 0Z" fill="#FF7A00" /><path d="M294.888708 677.952884m-80.272948 0a80.272949 80.272949 0 1 0 160.545897 0 80.272949 80.272949 0 1 0-160.545897 0Z" fill="#FF6600" /><path d="M247.057677 634.281072m-26.203087 0a26.203087 26.203087 0 1 0 52.406174 0 26.203087 26.203087 0 1 0-52.406174 0Z" fill="#FFFF9C" /><path d="M403.028432 569.81316m-108.139724 0a108.139724 108.139724 0 1 0 216.279448 0 108.139724 108.139724 0 1 0-216.279448 0Z" fill="#FF7A00" /><path d="M403.028432 569.81316m-80.272949 0a80.272949 80.272949 0 1 0 160.545898 0 80.272949 80.272949 0 1 0-160.545898 0Z" fill="#FF6600" /><path d="M355.1974 526.141348m-26.203086 0a26.203087 26.203087 0 1 0 52.406173 0 26.203087 26.203087 0 1 0-52.406173 0Z" fill="#FFFF9C" /><path d="M619.723802 569.81316m-108.139724 0a108.139724 108.139724 0 1 0 216.279448 0 108.139724 108.139724 0 1 0-216.279448 0Z" fill="#FF7A00" /><path d="M619.723802 569.81316m-80.272949 0a80.272949 80.272949 0 1 0 160.545898 0 80.272949 80.272949 0 1 0-160.545898 0Z" fill="#FF6600" /><path d="M571.476848 526.141348m-26.203087 0a26.203087 26.203087 0 1 0 52.406174 0 26.203087 26.203087 0 1 0-52.406174 0Z" fill="#FFFF9C" /><path d="M512 685.855402H77.361495l118.537774 338.144598h632.617384l118.121852-338.144598H512z" fill="#CC8A4A" /><path d="M836.003249 569.81316m-108.139723 0a108.139724 108.139724 0 1 0 216.279447 0 108.139724 108.139724 0 1 0-216.279447 0Z" fill="#FF7A00" /><path d="M836.003249 569.81316m-80.68887 0a80.688871 80.688871 0 1 0 161.377741 0 80.688871 80.688871 0 1 0-161.377741 0Z" fill="#FF6600" /><path d="M787.756296 526.141348m-26.203087 0a26.203087 26.203087 0 1 0 52.406174 0 26.203087 26.203087 0 1 0-52.406174 0Z" fill="#FFFF9C" /><path d="M30.362307 606.414297h963.275386v79.441105H30.362307z" fill="#E8A84A" /></svg>