<?xml version="1.0" standalone="no"?><!DOCTYPE svg PUBLIC "-//W3C//DTD SVG 1.1//EN" "http://www.w3.org/Graphics/SVG/1.1/DTD/svg11.dtd"><svg class="icon" width="200px" height="200.00px" viewBox="0 0 1024 1024" version="1.1" xmlns="http://www.w3.org/2000/svg"><path d="M858.4 265.5l-493.1-0.3c-1.4 0-2.5 1.1-2.5 2.5l-0.1 108.4h1.8c16.9 0 30.7 10.6 30.7 23.7l-0.2 217.5c9.8 7.3 18.1 16.5 24.5 27l238 0.2c3.9-6.4 8.6-12.4 14.1-17.9 17.6-17.5 40.8-27.2 65.4-27.2h0.1c24.7 0 47.9 9.7 65.5 27.3 5.5 5.5 10.1 11.5 14 17.9h41.6c1.4 0 2.5-1.1 2.5-2.5l0.3-374c-0.1-1.4-1.2-2.6-2.6-2.6z" fill="#F9D881" /><path d="M477.7 524.3s81.5-52.2 133.7 29.2c0 0-69.5 37.4-133.7-29.2zM643.4 553.6s34.1-90.6 124.7-56.5c0 0-33.4 71.5-124.7 56.5z" fill="#6F9176" /><path d="M656.3 467.3L677 457l-4.9-9.3c1.9-4.4 3.5-9.2 4.3-14.8 7.5-52.5-55-91-63.2-95.8l-0.3-0.5s-0.1 0.1-0.3 0.2c-0.2-0.1-0.3-0.2-0.3-0.2l-0.3 0.5c-8.2 4.8-70.8 43.2-63.3 95.7 0.8 5.6 2.4 10.4 4.3 14.8l-5 9.3 20.6 10.3c5.8 4.3 12.2 7.3 18.8 9.4l8.7 4.4s6.8 0.7 16.4 0.2c9.6 0.6 16.4-0.2 16.4-0.2l8.7-4.3c6.5-2.1 12.9-5.1 18.7-9.4z" fill="#E56053" /><path d="M526.7 385.5c-19.7 23.8-28.6 56.1-21.2 88.5 12.7 55.2 67.8 89.7 123 77 17.7-4.1 33.2-12.5 45.8-23.9-6-134.5-147-141.5-147.6-141.6z" fill="#EE7E65" /><path d="M697.3 386.1c20.1 23.1 29.6 54.8 22.9 87.1-11.3 54.9-65 90.3-120 79-17.6-3.6-33.2-11.7-45.9-22.6 3-133.3 142.3-143.4 143-143.5z" fill="#F0967E" /><path d="M785.6 643.6c-13-13-30.2-20.2-48.5-20.2-18.2 0-35.5 7.2-48.5 20.2l-0.9 0.9 98.8 0.1c-0.4-0.4-0.6-0.7-0.9-1z" fill="#F9D881" /><path d="M408.5 688.4c0-0.5-0.1-0.9-0.1-1.3 0-0.7-0.1-1.4-0.2-2.1-0.1-0.6-0.1-1.1-0.2-1.7-0.1-0.6-0.1-1.1-0.2-1.7-0.1-0.6-0.2-1.3-0.3-1.9-0.1-0.5-0.2-0.9-0.3-1.4-0.1-0.7-0.3-1.4-0.5-2.1l-0.3-1.2c-0.2-0.7-0.4-1.5-0.6-2.2-0.1-0.3-0.2-0.6-0.3-1-0.2-0.8-0.5-1.6-0.8-2.3-0.1-0.3-0.2-0.5-0.3-0.8l-0.9-2.4c-0.1-0.2-0.2-0.4-0.2-0.6-0.4-0.9-0.7-1.7-1.1-2.5-0.1-0.1-0.1-0.3-0.2-0.4-0.4-0.9-0.8-1.7-1.3-2.6-0.1-0.1-0.1-0.2-0.2-0.3-0.5-0.9-1-1.7-1.5-2.6 0-0.1-0.1-0.1-0.1-0.2-0.5-0.9-1.1-1.8-1.6-2.6 0 0 0-0.1-0.1-0.1-0.6-0.9-1.2-1.7-1.8-2.6-0.6-0.9-1.3-1.7-1.9-2.5-12.6-15.8-32-26-53.7-26-21.7 0-41.1 10.1-53.7 25.9-0.7 0.8-1.3 1.7-1.9 2.5-0.6 0.9-1.2 1.7-1.8 2.6 0 0 0 0.1-0.1 0.1-0.6 0.9-1.1 1.7-1.6 2.6 0 0.1-0.1 0.1-0.1 0.2-0.5 0.9-1 1.7-1.5 2.6-0.1 0.1-0.1 0.2-0.2 0.3-0.4 0.9-0.9 1.7-1.3 2.6-0.1 0.1-0.1 0.3-0.2 0.4-0.4 0.8-0.8 1.7-1.1 2.5-0.1 0.2-0.2 0.4-0.2 0.6l-0.9 2.4c-0.1 0.3-0.2 0.5-0.3 0.8-0.3 0.8-0.5 1.6-0.8 2.3-0.1 0.3-0.2 0.6-0.3 1-0.2 0.7-0.4 1.5-0.6 2.2l-0.3 1.2c-0.2 0.7-0.3 1.4-0.5 2.1-0.1 0.5-0.2 0.9-0.3 1.4-0.1 0.6-0.2 1.3-0.3 1.9-0.1 0.6-0.1 1.1-0.2 1.7-0.1 0.6-0.2 1.1-0.2 1.7-0.1 0.7-0.1 1.4-0.2 2.1 0 0.4-0.1 0.9-0.1 1.3-0.1 1.2-0.1 2.3-0.1 3.5 0 37.9 30.8 68.7 68.7 68.8 37.9 0 68.7-30.8 68.7-68.7 0.2-1.2 0.2-2.4 0.1-3.5zM339.9 599.1c7.9 0 15.4 1 22.6 2.8l0.2-225.8-99.2-0.1-95.9 167.5-0.1 100.5 92.8 0.1c16.3-26.9 45.9-45 79.6-45z" fill="#F0967E" /><path d="M395 617.3l0.2-217.5c0-13.1-13.7-23.7-30.7-23.7h-1.8l-0.2 225.8c11.9 3 22.9 8.3 32.5 15.4z" fill="#F9D881" /><path d="M786.4 644.5l-0.9-0.9c-13-13-30.2-20.2-48.5-20.2-18.2 0-35.5 7.2-48.5 20.2l-0.9 0.9c-12.5 12.9-19.3 29.7-19.3 47.6 0 18.3 7.1 35.5 20.2 48.5 13 13 30.2 20.2 48.5 20.2 18.2 0 35.5-7.2 48.5-20.2s20.2-30.2 20.2-48.5c0-17.8-6.8-34.7-19.3-47.6z" fill="#F0967E" /><path d="M289.9 417.9l-61.2 111.9 112 0.1 0.1-112z" fill="#F6C6B7" /></svg>