<?xml version="1.0" standalone="no"?><!DOCTYPE svg PUBLIC "-//W3C//DTD SVG 1.1//EN" "http://www.w3.org/Graphics/SVG/1.1/DTD/svg11.dtd"><svg class="icon" width="200px" height="200.00px" viewBox="0 0 1024 1024" version="1.1" xmlns="http://www.w3.org/2000/svg"><path d="M278.8 213.4c1.2 2.8 2.6 4.4 4.8 5.9 0.1 0.1 2.7 1.8 11.4 1.8h436.1c8 0 10.4-1.5 10.5-1.5 2-1.6 3.4-3.3 4.3-5.3 2-4 2.7-7.6 2.7-11.7v-24.5H276.5v24.5c0 4.2 0.7 7.7 2.3 10.8z" fill="#FFD524" /><path d="M262.2 249.2c8.2 5.8 18.9 8.7 32.8 8.7h436.1c14.1 0 24.9-3 32.8-9.1 7.1-5.4 12.3-12.1 15.2-19 4.1-8.2 6.2-17.3 6.2-27.2v-69.5c0-17.5-4-31.4-11.9-41.4-6.8-8.5-14.5-15.3-22.9-19.9-0.4-0.2-0.9-0.5-1.3-0.7-10.1-4.6-21.2-6.9-32.9-6.9H403.1c-10.1 0-18.4 8.2-18.4 18.4s8.2 18.4 18.4 18.4h313.3c6.3 0 11.8 1.1 17 3.3 3.9 2.3 7.7 5.8 11.3 10.2 1.2 1.5 4 6.4 4 18.7v69.6c0 4.2-0.7 7.7-2.7 11.7-0.9 2-2.2 3.7-4.3 5.3 0 0-2.4 1.5-10.5 1.5H295c-8.8 0-11.3-1.8-11.4-1.8-2.2-1.5-3.6-3.2-4.8-5.9-1.5-3.1-2.3-6.6-2.3-10.7v-69.6c0-12.3 2.8-17.1 4-18.6 3.5-4.5 7.3-7.9 11.3-10.2 5.2-2.2 10.7-3.3 17-3.3 10.1 0 18.4-8.2 18.4-18.4s-8.2-18.4-18.4-18.4c-11.7 0-22.8 2.3-32.9 6.9-0.4 0.2-0.9 0.4-1.3 0.7-8.4 4.7-16.1 11.4-22.9 19.9-8 10.1-11.9 23.6-11.9 41.4v69.5c0 9.9 2.1 19 5.7 26.2 3.4 7.9 9.1 14.7 16.7 20.2zM845.1 402.7c-6.6-7.7-18.2-8.6-25.9-2-7.7 6.6-8.6 18.2-2 25.9 3.1 3.6 8.2 13.2 8.2 37.6v394c0 12.8-2.3 24.5-6.7 34.4-3.8 8-9.7 15.5-17.7 22.1-6.8 5.6-17.5 8.4-32 8.4H257.1c-14.9 0-26-2.8-32.3-8.2-7.8-6.7-13.7-14.2-17.3-22-4.7-10.5-7.3-22.4-7.9-34.7v-394c0-24.3 5.1-34 8.2-37.6 8.1-9.4 15.6-17.6 21.7-23.8l69.5-64.6h449c10.1 0 18.4-8.2 18.4-18.4s-8.2-18.4-18.4-18.4H291.9c-4.6 0-9.1 1.8-12.5 4.9l-75.3 70c-7.3 7.3-15.4 16.2-24.1 26.3-11.5 13.4-17.1 33.5-17.1 61.4v394.8c0.8 17.7 4.5 34.1 11.2 49.1 6 12.9 15 24.5 26.8 34.6 13.2 11.3 32.1 17 56.2 17H769c23.3 0 41.9-5.7 55.4-16.8 12.2-10.1 21.5-21.8 27.7-35.1 6.6-14.9 10-31.6 10-49.6V464c0.1-27.8-5.5-47.9-17-61.3z" fill="#6B400D" /><path d="M402 894.6h221.1c20.8 0 37.7-16.9 37.7-37.7v-28c0-20.8 16.9-37.7 37.7-37.7H751c20.8 0 37.7-16.9 37.7-37.7V532.6c0-20.8-16.9-37.7-37.7-37.7h-52.5c-20.8 0-37.7-16.9-37.7-37.7v-29.7c0-20.8-16.9-37.7-37.7-37.7H402c-20.8 0-37.7 16.9-37.7 37.7v29.7c0 20.8-16.9 37.7-37.7 37.7h-52.5c-20.8 0-37.7 16.9-37.7 37.7v221.1c0 20.8 16.9 37.7 37.7 37.7h52.5c20.8 0 37.7 16.9 37.7 37.7v28c0.1 20.6 16.9 37.5 37.7 37.5z m-56.4-158.8c-20.3 0-36.7-16.4-36.7-36.7V586.4c0-20.3 16.4-36.7 36.7-36.7h73.9v-75c0-20.3 16.4-36.7 36.7-36.7h112.7c20.3 0 36.7 16.4 36.7 36.7v75h73.9c20.3 0 36.7 16.4 36.7 36.7v112.7c0 20.3-16.4 36.7-36.7 36.7h-73.9v73.9c0 20.3-16.4 36.7-36.7 36.7H456.2c-20.3 0-36.7-16.4-36.7-36.7v-73.9h-73.9z" fill="#FFD524" /><path d="M456.2 809.7h112.7V699.1h110.6V586.4H568.9V474.7H456.2v111.7H345.6v112.7h110.6z" fill="#FFFFFF" /><path d="M419.5 809.7c0 20.3 16.4 36.7 36.7 36.7h112.7c20.3 0 36.7-16.4 36.7-36.7v-73.9h73.9c20.3 0 36.7-16.4 36.7-36.7V586.4c0-20.3-16.4-36.7-36.7-36.7h-73.9v-75c0-20.3-16.4-36.7-36.7-36.7H456.2c-20.3 0-36.7 16.4-36.7 36.7v75h-73.9c-20.3 0-36.7 16.4-36.7 36.7v112.7c0 20.3 16.4 36.7 36.7 36.7h73.9v73.9z m-73.9-223.3h110.6V474.7h112.7v111.7h110.6v112.7H568.9v110.6H456.2V699.1H345.6V586.4z" fill="#6B400D" /></svg>